<?xml version="1.0" ?><svg enable-background="new 0 0 24 24" id="Layer_1" version="1.1" viewBox="0 0 24 24" xml:space="preserve" xmlns="http://www.w3.org/2000/svg" xmlns:xlink="http://www.w3.org/1999/xlink"><g><path d="M17,3.1962891V0.5C17,0.2236328,16.7763672,0,16.5,0h-3   c-0.1923828,0-0.3681641,0.1103516-0.4511719,0.2841797l-0.8193359,1.7133789c-0.019043,0-0.0385742,0.0004883-0.0571289,0.0004883   L12,2C5.9345703,2,1,6.9345703,1,13c0,1.8789062,0.4882812,3.7402344,1.4116211,5.3828125   c0.0913086,0.1621094,0.269043,0.2592773,0.4526367,0.2543945c0.1865234-0.0058594,0.3540039-0.1152344,0.4345703-0.2836914   l1.1269531-2.3564453c0.0566406-0.1186523,0.0644531-0.2553711,0.0214844-0.3793945C4.1503906,14.7612305,4,13.8803711,4,13   c0-3.9750977,2.9018555-7.2963867,6.75-7.9082031L2.0488281,23.2841797   c-0.0742188,0.1547852-0.0634766,0.3369141,0.0283203,0.4824219C2.168457,23.9121094,2.328125,24,2.5,24h3   c0.2001953,0,0.3808594-0.1191406,0.4594727-0.3032227L8.8295898,17H13.5v0.5c0,0.1923828,0.1103516,0.3671875,0.2832031,0.4506836   c0.1738281,0.0839844,0.3789062,0.0595703,0.5292921-0.0600586l2.499999-2C16.9311523,15.7954102,17,15.6518555,17,15.5   s-0.0688477-0.2954102-0.1875057-0.390625l-2.499999-2c-0.1508741-0.1206055-0.3574171-0.1445312-0.5292921-0.0600586   C13.6103516,13.1328125,13.5,13.3076172,13.5,13.5V14h-3.2265625L13.5,6.8295898V11.5   c0,0.1518555,0.0688477,0.2954102,0.1874952,0.390625l2.499999,2c0.1494198,0.1201172,0.3559628,0.1430664,0.5293026,0.0600586   C16.8896484,13.8671875,17,13.6923828,17,13.5V6.7695312C18.894043,8.2890625,20,10.5571289,20,13   c0,2.5196533-1.1737061,4.7675171-3,6.2350464V17.5c0-0.1923828-0.1103516-0.3671875-0.2832031-0.4506836   c-0.1738281-0.0834961-0.3793945-0.0600586-0.5293026,0.0600586l-2.499999,2   c-0.1655226,0.1328125-0.2294874,0.355957-0.1591749,0.5561523S13.7875977,20,14,20h1.8643799   C14.7178345,20.6355591,13.4011841,21,12,21c-1.0332031,0-2.0458984-0.1987305-3.0097656-0.5908203   c-0.2519531-0.1005859-0.5405273,0.0161133-0.6479492,0.2666016l-0.7880859,1.8393555   C7.5014648,22.6381836,7.5,22.7773438,7.5507812,22.9008789c0.0507812,0.1240234,0.1489258,0.2226562,0.2729492,0.2734375   C9.15625,23.722168,10.5615234,24,12,24c6.0654297,0,11-4.9345703,11-11C23,8.8925781,20.6552734,5.0791016,17,3.1962891z" fill="#303C42"/><polygon fill="#D32F2F" points="16,18.5405273 16,19 15.425293,19  "/><path d="M12,23c-1.1376953,0-2.2529297-0.1914062-3.3217773-0.5693359l0.3950195-0.9223633   C10.0180664,21.8349609,11,22,12,22c4.9624023,0,9-4.0375977,9-9c0-3.1015625-1.5825195-5.9511719-4.2333984-7.6230469   c-0.152832-0.097168-0.3481445-0.1035156-0.5083008-0.0151367C16.0991211,5.449707,16,5.6176758,16,5.7998047v6.659668   l-1.5-1.199707V4.5c0-0.2358398-0.1645508-0.4394531-0.3950195-0.4887695   c-0.2294922-0.0498047-0.4643555,0.0688477-0.5610352,0.2836914l-4.5,10   c-0.0693359,0.1547852-0.0561523,0.3339844,0.0361328,0.4765625S9.3305664,15,9.5,15H14   c0.2631836,0,0.4785156-0.203125,0.4985352-0.4609375L15.699707,15.5l-1.2011719,0.9609375   C14.4785156,16.203125,14.2631836,16,14,16H8.5c-0.2001953,0-0.3808594,0.1191406-0.4594727,0.3032227L5.1704102,23H3.293457   l8.7436523-18.2817383c0.0761719-0.1591797,0.0625-0.3461914-0.0351562-0.4931641s-0.2700195-0.2348633-0.4414062-0.222168   C6.7602539,4.2485352,3,8.2001953,3,13c0,0.9248047,0.1464844,1.8481445,0.4365234,2.7480469l-0.5981445,1.2504883   C2.2875977,15.7397461,2,14.375,2,13C2,7.4858398,6.4858398,3,12,3l0.1874952-0.0019531   c0.113286-0.0019531,0.229497-0.0043945,0.3330126,0.0009766c0.2036133,0.0175781,0.387207-0.1020508,0.4741211-0.2836914   L13.8149414,1H16v2.5058594c0,0.1923828,0.1103516,0.3676758,0.2841797,0.4511719C19.7563477,5.6201172,22,9.1699219,22,13   C22,18.5141602,17.5141602,23,12,23z" fill="#D32F2F"/><linearGradient gradientUnits="userSpaceOnUse" id="SVGID_1_" x1="1.9676641" x2="21.905386" y1="8.487565" y2="17.7846775"><stop offset="0" style="stop-color:#FFFFFF;stop-opacity:0.2"/><stop offset="1" style="stop-color:#FFFFFF;stop-opacity:0"/></linearGradient><path d="M17,3.1962891V0.5C17,0.2236328,16.7763672,0,16.5,0h-3   c-0.1923828,0-0.3681641,0.1103516-0.4511719,0.2841797l-0.8193359,1.7133789c-0.019043,0-0.0385742,0.0004883-0.0571289,0.0004883   L12,2C5.9345703,2,1,6.9345703,1,13c0,1.8789062,0.4882812,3.7402344,1.4116211,5.3828125   c0.0913086,0.1621094,0.269043,0.2592773,0.4526367,0.2543945c0.1865234-0.0058594,0.3540039-0.1152344,0.4345703-0.2836914   l1.1269531-2.3564453c0.0566406-0.1186523,0.0644531-0.2553711,0.0214844-0.3793945C4.1503906,14.7612305,4,13.8803711,4,13   c0-3.9750977,2.9018555-7.2963867,6.75-7.9082031L2.0488281,23.2841797   c-0.0742188,0.1547852-0.0634766,0.3369141,0.0283203,0.4824219C2.168457,23.9121094,2.328125,24,2.5,24h3   c0.2001953,0,0.3808594-0.1191406,0.4594727-0.3032227L8.8295898,17H13.5v0.5c0,0.1923828,0.1103516,0.3671875,0.2832031,0.4506836   c0.1738281,0.0839844,0.3789062,0.0595703,0.5292921-0.0600586l2.499999-2C16.9311523,15.7954102,17,15.6518555,17,15.5   s-0.0688477-0.2954102-0.1875057-0.390625l-2.499999-2c-0.1508741-0.1206055-0.3574171-0.1445312-0.5292921-0.0600586   C13.6103516,13.1328125,13.5,13.3076172,13.5,13.5V14h-3.2265625L13.5,6.8295898V11.5   c0,0.1518555,0.0688477,0.2954102,0.1874952,0.390625l2.499999,2c0.1494198,0.1201172,0.3559628,0.1430664,0.5293026,0.0600586   C16.8896484,13.8671875,17,13.6923828,17,13.5V6.7695312C18.894043,8.2890625,20,10.5571289,20,13   c0,2.5196533-1.1737061,4.7675171-3,6.2350464V17.5c0-0.1923828-0.1103516-0.3671875-0.2832031-0.4506836   c-0.1738281-0.0834961-0.3793945-0.0600586-0.5293026,0.0600586l-2.499999,2   c-0.1655226,0.1328125-0.2294874,0.355957-0.1591749,0.5561523S13.7875977,20,14,20h1.8643799   C14.7178345,20.6355591,13.4011841,21,12,21c-1.0332031,0-2.0458984-0.1987305-3.0097656-0.5908203   c-0.2519531-0.1005859-0.5405273,0.0161133-0.6479492,0.2666016l-0.7880859,1.8393555   C7.5014648,22.6381836,7.5,22.7773438,7.5507812,22.9008789c0.0507812,0.1240234,0.1489258,0.2226562,0.2729492,0.2734375   C9.15625,23.722168,10.5615234,24,12,24c6.0654297,0,11-4.9345703,11-11C23,8.8925781,20.6552734,5.0791016,17,3.1962891z" fill="url(#SVGID_1_)"/></g><g/><g/><g/><g/><g/><g/><g/><g/><g/><g/><g/><g/><g/><g/><g/></svg>